<?xml version="1.0" encoding="iso-8859-1"?>
<!-- Generator: Adobe Illustrator 19.0.0, SVG Export Plug-In . SVG Version: 6.00 Build 0)  -->
<svg version="1.1" id="Layer_1" xmlns="http://www.w3.org/2000/svg" xmlns:xlink="http://www.w3.org/1999/xlink" x="0px" y="0px"
	 viewBox="0 0 512 512" style="enable-background:new 0 0 512 512;" xml:space="preserve">
<path style="fill:#FFCD54;" d="M512,256.006C512,397.402,397.394,512.004,256.004,512C114.606,512.004,0,397.402,0,256.006
	C-0.007,114.61,114.606,0,256.004,0C397.394,0,512,114.614,512,256.006z"/>
<path style="fill:#F4BA41;" d="M511.936,258.555c-0.116-0.116-0.234-0.234-0.35-0.35c-0.306-0.308-128.129-128.131-128.436-128.436
	C350.65,97.035,305.661,76.717,256,76.717c-98.855,0-179.283,80.428-179.283,179.283c0,49.659,20.316,94.646,53.049,127.146
	c0.306,0.308,0.612,0.614,0.921,0.921c0.306,0.308,127.209,127.211,127.517,127.516c0.117,0.118,0.236,0.236,0.353,0.353
	C397.913,510.572,510.57,397.916,511.936,258.555z"/>
<g>
	<path style="fill:#F4F6F9;" d="M256,76.717c-98.855,0-179.283,80.428-179.283,179.283S157.145,435.283,256,435.283
		S435.283,354.855,435.283,256S354.855,76.717,256,76.717z M256,420.342c-90.619,0-164.342-73.724-164.342-164.342
		S165.381,91.658,256,91.658S420.342,165.381,420.342,256S346.619,420.342,256,420.342z"/>
	<path style="fill:#F4F6F9;" d="M345.642,248.53H263.47v-82.172c0-4.126-3.341-7.47-7.47-7.47c-4.129,0-7.47,3.345-7.47,7.47v82.172
		h-82.172c-4.129,0-7.47,3.345-7.47,7.47c0,4.126,3.341,7.47,7.47,7.47h82.172v82.172c0,4.126,3.341,7.47,7.47,7.47
		c4.129,0,7.47-3.345,7.47-7.47V263.47h82.172c4.129,0,7.47-3.345,7.47-7.47C353.111,251.874,349.771,248.53,345.642,248.53z"/>
</g>
<g>
</g>
<g>
</g>
<g>
</g>
<g>
</g>
<g>
</g>
<g>
</g>
<g>
</g>
<g>
</g>
<g>
</g>
<g>
</g>
<g>
</g>
<g>
</g>
<g>
</g>
<g>
</g>
<g>
</g>
</svg>
